<?xml version="1.0" encoding="UTF-8"?>
<svg width="500px" height="141px" viewBox="0 0 500 141" version="1.1" xmlns="http://www.w3.org/2000/svg" xmlns:xlink="http://www.w3.org/1999/xlink">
    <!-- Generator: Sketch 53.2 (72643) - https://sketchapp.com -->
    <title>logo</title>
    <desc>Created with Sketch.</desc>
    <g id="Page-1" stroke="none" stroke-width="1" fill="none" fill-rule="evenodd">
        <g id="logo" fill="#FFFFFF" fill-rule="nonzero">
            <path d="M500,69.26 L469.6,99.66 L449.33,119.93 L429.06,99.66 L398.66,69.26 L418.93,49 L449.33,79.4 L479.73,49 L500,69.26 Z M324,39.88 C324,48.61 334.44,52 347.71,56.2 C370.87,63.41 389.09,73.47 389.09,97.2 C389.09,119.98 368.78,140.29 334.23,140.29 C315.44,140.29 296.08,133.88 283.36,121.88 L299.12,97.39 C310.13,106.88 323.23,111.06 333.86,111.06 C349.05,111.06 354.55,104.6 354.55,98.53 C354.55,89.22 342.59,87.33 331.39,83.72 C309.94,76.89 289.25,66.83 289.25,41.58 C289.25,15.01 310.7,0.2 340.5,0.2 C356.65,0.2 372.21,4.19 385.5,12.54 L372.4,37.41 C361.22,30.77 350.38,28.3 342.22,28.3 C330.45,28.3 324,33.05 324,39.88 Z M273.82,76.71 C273.82,111.07 248.38,140.3 206.62,140.3 C163.15,140.3 137.52,114.48 137.52,71.39 C137.52,27.36 165.61,0.21 208.7,0.21 C237.18,0.21 258.06,13.12 267.36,33.62 L240.03,49 C232.63,34.2 221.05,29.83 208.52,29.83 C186.88,29.83 173.21,45.77 173.21,70.45 C173.21,95.31 184.6,110.69 206.81,110.69 C228.08,110.69 238.7,96.64 239.08,86.39 L210.61,86.39 L210.61,60 L273.82,60 L273.82,76.71 Z M123.27,69.65 L123.2,69.66 C123.2,103.45 102.32,138 55.81,138 L0,138 L0,2.45 L56.83,2.45 C101.27,2.45 123.27,34.91 123.27,69.65 Z M88.34,69.65 L88.22,69.68 C88.22,52.03 79.49,31.15 55,31.15 L35.6,31.15 L35.6,109.32 L53.6,109.32 C76.95,109.32 88.34,89.96 88.34,69.65 Z" id="Shape"></path>
        </g>
    </g>
</svg>